<svg width="33" height="33" viewBox="0 0 33 33" fill="none" xmlns="http://www.w3.org/2000/svg">
    <path
        d="M29.7815 17.1519L17.7815 29.1519C17.6416 29.292 17.4634 29.3873 17.2693 29.426C17.0752 29.4646 16.874 29.4448 16.6912 29.3691C16.5084 29.2933 16.3521 29.165 16.2423 29.0004C16.1324 28.8358 16.0738 28.6423 16.074 28.4444V23.4444H6.07397C5.54354 23.4444 5.03483 23.2337 4.65976 22.8587C4.28469 22.4836 4.07397 21.9749 4.07397 21.4444V11.4444C4.07397 10.914 4.28469 10.4053 4.65976 10.0302C5.03483 9.65516 5.54354 9.44445 6.07397 9.44445H16.074V4.44445C16.0738 4.24655 16.1324 4.05306 16.2423 3.88847C16.3521 3.72387 16.5084 3.59558 16.6912 3.51983C16.874 3.44407 17.0752 3.42427 17.2693 3.46292C17.4634 3.50157 17.6416 3.59694 17.7815 3.73695L29.7815 15.7369C29.8745 15.8298 29.9482 15.9401 29.9985 16.0615C30.0489 16.1829 30.0748 16.313 30.0748 16.4444C30.0748 16.5759 30.0489 16.706 29.9985 16.8274C29.9482 16.9488 29.8745 17.0591 29.7815 17.1519Z"
        fill="white" />
</svg>