<svg width="33" height="33" viewBox="0 0 33 33" fill="none" xmlns="http://www.w3.org/2000/svg">
    <path
        d="M28.074 11.4444V21.4444C28.074 21.9749 27.8633 22.4836 27.4882 22.8587C27.1132 23.2337 26.6045 23.4444 26.074 23.4444H16.074V28.4444C16.0742 28.6423 16.0156 28.8358 15.9057 29.0004C15.7959 29.165 15.6396 29.2933 15.4568 29.3691C15.274 29.4448 15.0728 29.4646 14.8787 29.426C14.6846 29.3873 14.5064 29.292 14.3665 29.1519L2.36653 17.1519C2.27355 17.0591 2.19979 16.9488 2.14947 16.8274C2.09914 16.706 2.07324 16.5759 2.07324 16.4444C2.07324 16.313 2.09914 16.1829 2.14947 16.0615C2.19979 15.9401 2.27355 15.8298 2.36653 15.7369L14.3665 3.73695C14.5064 3.59694 14.6846 3.50157 14.8787 3.46292C15.0728 3.42427 15.274 3.44407 15.4568 3.51983C15.6396 3.59558 15.7959 3.72387 15.9057 3.88847C16.0156 4.05306 16.0742 4.24655 16.074 4.44445V9.44445H26.074C26.6045 9.44445 27.1132 9.65516 27.4882 10.0302C27.8633 10.4053 28.074 10.914 28.074 11.4444Z"
        fill="white" />
</svg>