<svg width="33" height="33" viewBox="0 0 33 33" fill="none" xmlns="http://www.w3.org/2000/svg">
    <path
        d="M28.7815 18.1519L16.7815 30.1519C16.6887 30.2449 16.5784 30.3187 16.457 30.369C16.3356 30.4193 16.2054 30.4452 16.074 30.4452C15.9426 30.4452 15.8125 30.4193 15.6911 30.369C15.5697 30.3187 15.4594 30.2449 15.3665 30.1519L3.36653 18.1519C3.22652 18.0121 3.13115 17.8338 3.0925 17.6398C3.05385 17.4457 3.07365 17.2445 3.14941 17.0617C3.22516 16.8788 3.35345 16.7226 3.51805 16.6127C3.68264 16.5029 3.87613 16.4443 4.07403 16.4444H9.07403V6.44445C9.07403 5.91401 9.28474 5.40531 9.65982 5.03023C10.0349 4.65516 10.5436 4.44445 11.074 4.44445H21.074C21.6045 4.44445 22.1132 4.65516 22.4882 5.03023C22.8633 5.40531 23.074 5.91401 23.074 6.44445V16.4444H28.074C28.2719 16.4443 28.4654 16.5029 28.63 16.6127C28.7946 16.7226 28.9229 16.8788 28.9987 17.0617C29.0744 17.2445 29.0942 17.4457 29.0556 17.6398C29.0169 17.8338 28.9215 18.0121 28.7815 18.1519Z"
        fill="white" />
</svg>