<svg width="33" height="33" viewBox="0 0 33 33" fill="none" xmlns="http://www.w3.org/2000/svg">
    <path
        d="M28.9978 15.8269C28.9221 16.0097 28.794 16.1659 28.6296 16.2758C28.4651 16.3857 28.2718 16.4444 28.074 16.4444H23.074V26.4444C23.074 26.9749 22.8633 27.4836 22.4882 27.8587C22.1132 28.2337 21.6045 28.4444 21.074 28.4444H11.074C10.5436 28.4444 10.0349 28.2337 9.65982 27.8587C9.28474 27.4836 9.07403 26.9749 9.07403 26.4444V16.4444H4.07403C3.87613 16.4446 3.68264 16.386 3.51805 16.2762C3.35345 16.1663 3.22516 16.0101 3.14941 15.8272C3.07365 15.6444 3.05385 15.4432 3.0925 15.2491C3.13115 15.0551 3.22652 14.8768 3.36653 14.7369L15.3665 2.73695C15.4594 2.64397 15.5697 2.57021 15.6911 2.51989C15.8125 2.46956 15.9426 2.44366 16.074 2.44366C16.2054 2.44366 16.3356 2.46956 16.457 2.51989C16.5784 2.57021 16.6887 2.64397 16.7815 2.73695L28.7815 14.7369C28.9213 14.8769 29.0165 15.0551 29.055 15.2491C29.0935 15.4432 29.0736 15.6442 28.9978 15.8269Z"
        fill="white" />
</svg>